# xmcd
#
# Track frame offsets: 
#        150
#        12472
#        23609
#        35684
#        47298
#        62382
#        72750
#        86920
#        97007
#        114419
#        128191
#
# Disc length: 1898 seconds
#
# Revision: 1
# Processed by: cddbd v1.5.2PL0 Copyright (c) Steve Scherf et al.
# Submitted via: ExactAudioCopyFreeDBPlugin 1.0
#
DISCID=8807680b
DTITLE=Antanas - Fontanas
DYEAR=2005
DGENRE=Pop
TTITLE0=Padovanokit sypsena
TTITLE1=Elektrenu ziburiai
TTITLE2=Pasakyk man myliu
TTITLE3=Melynos gatveles
TTITLE4=Mes isliksim jauni
TTITLE5=Is keliu tolimu
TTITLE6=Pop zvaigzde
TTITLE7=Suomiska pirtis
TTITLE8=Zuvedra
TTITLE9=Svelnus pukeli
TTITLE10=Princo arija
EXTD=
EXTT0=
EXTT1=
EXTT2=
EXTT3=
EXTT4=
EXTT5=
EXTT6=
EXTT7=
EXTT8=
EXTT9=
EXTT10=
PLAYORDER=
